<?xml version="1.0" encoding="utf-8"?>
<!-- Generator: Adobe Illustrator 15.1.0, SVG Export Plug-In . SVG Version: 6.00 Build 0)  -->
<!DOCTYPE svg PUBLIC "-//W3C//DTD SVG 1.1//EN" "http://www.w3.org/Graphics/SVG/1.1/DTD/svg11.dtd">
<svg version="1.1" id="Layer_1" xmlns="http://www.w3.org/2000/svg" xmlns:xlink="http://www.w3.org/1999/xlink" x="0px" y="0px"
	 width="800px" height="600px" viewBox="0 0 800 600" enable-background="new 0 0 800 600" xml:space="preserve">
<g>
	<path d="M488.726,329.165v-49.482c0-0.915-0.741-1.657-1.656-1.657c-0.916,0-1.657,0.742-1.657,1.657v49.482
		c0,0.917,0.741,1.658,1.657,1.658C487.984,330.823,488.726,330.082,488.726,329.165z"/>
	<path d="M536.783,267.236c-3.504,0-7.868-1.511-12.49-3.111c-5.854-2.028-12.489-4.325-19.371-4.325
		c-7.961,0-12.817,3.489-15.489,6.417c-1.001,1.095-1.776,2.192-2.363,3.165c-0.586-0.973-1.362-2.07-2.362-3.165
		c-2.671-2.928-7.528-6.417-15.489-6.417c-6.883,0-13.519,2.297-19.371,4.325c-4.623,1.6-8.988,3.111-12.49,3.111
		c-0.916,0-1.659,0.742-1.659,1.657v66.747c0,0.916,0.743,1.659,1.659,1.659c4.06,0,8.682-1.602,13.573-3.296
		c5.609-1.942,11.962-4.142,18.285-4.142c5.423,0,9.812,1.796,13.045,5.337c0.618,0.675,1.666,0.723,2.341,0.104
		c0.677-0.617,0.724-1.665,0.105-2.34c-2.672-2.928-7.528-6.415-15.491-6.415c-6.881,0-13.516,2.296-19.369,4.324
		c-3.918,1.356-7.652,2.648-10.834,3.011v-63.414c3.646-0.348,7.682-1.745,11.918-3.213c5.609-1.941,11.962-4.142,18.285-4.142
		c12.789,0,16.136,10.156,16.27,10.583c0.214,0.696,0.858,1.17,1.585,1.17c0.728,0,1.37-0.474,1.584-1.17
		c0.033-0.105,3.397-10.583,16.269-10.583c6.325,0,12.679,2.201,18.285,4.142c4.239,1.468,8.275,2.865,11.919,3.213v63.414
		c-3.181-0.362-6.916-1.654-10.833-3.011c-5.854-2.028-12.489-4.324-19.371-4.324c-7.961,0-12.82,3.487-15.489,6.415
		c-0.619,0.678-0.569,1.724,0.104,2.34c0.676,0.618,1.725,0.57,2.341-0.104c3.233-3.541,7.622-5.337,13.044-5.337
		c6.325,0,12.679,2.201,18.285,4.142c4.895,1.695,9.515,3.296,13.576,3.296c0.915,0,1.656-0.743,1.656-1.658v-66.748
		C538.439,267.978,537.698,267.236,536.783,267.236z"/>
	<path d="M536.783,340.612c-3.504,0-7.868-1.513-12.49-3.113c-5.854-2.025-12.489-4.324-19.371-4.324
		c-7.476,0-12.215,3.077-14.979,5.877h-5.749c-2.762-2.8-7.502-5.877-14.979-5.877c-6.881,0-13.516,2.299-19.369,4.324
		c-4.622,1.601-8.987,3.113-12.489,3.113c-0.916,0-1.659,0.74-1.659,1.655s0.743,1.658,1.659,1.658c4.06,0,8.682-1.601,13.573-3.294
		c5.609-1.942,11.962-4.142,18.285-4.142c5.423,0,9.812,1.794,13.045,5.336c0.312,0.343,0.758,0.539,1.223,0.539l7.173,0.001
		c0.465,0,0.909-0.197,1.223-0.54c3.233-3.542,7.622-5.336,13.044-5.336c6.324,0,12.678,2.199,18.285,4.142
		c4.895,1.693,9.515,3.294,13.576,3.294c0.915,0,1.656-0.743,1.656-1.658S537.698,340.612,536.783,340.612z"/>
</g>
<g>
	<path fill="#010002" d="M271.566,249.978c-24.312,0-43.358,8.211-43.358,18.697v10.206c0,10.481,19.046,18.692,43.358,18.692
		c24.315,0,43.365-8.21,43.365-18.692v-10.206C314.931,258.189,295.881,249.978,271.566,249.978z M311.093,278.878
		c0,8.755-20.829,14.855-39.527,14.855c-18.693,0-39.522-6.1-39.522-14.855v-10.206c0-8.757,20.828-14.86,39.522-14.86
		c18.696,0,39.527,6.103,39.527,14.86V278.878z"/>
	<path fill="#010002" d="M230.126,291.046c-1.062,0-1.918,0.86-1.918,1.919v10.205c0,10.481,19.046,18.693,43.358,18.693
		c24.315,0,43.365-8.212,43.365-18.693v-10.205c0-1.059-0.858-1.919-1.919-1.919s-1.918,0.86-1.918,1.919v10.205
		c0,8.755-20.829,14.856-39.527,14.856c-18.693,0-39.522-6.102-39.522-14.856v-10.205
		C232.044,291.906,231.187,291.046,230.126,291.046z"/>
	<path fill="#010002" d="M228.208,328.813c0,10.48,19.046,18.69,43.358,18.69c24.315,0,43.365-8.209,43.365-18.69v-10.206
		c0-1.06-0.858-1.919-1.919-1.919s-1.918,0.859-1.918,1.919v10.206c0,8.753-20.829,14.854-39.527,14.854
		c-18.693,0-39.522-6.104-39.522-14.854v-10.206c0-1.06-0.856-1.919-1.918-1.919c-1.061,0-1.918,0.859-1.918,1.919
		C228.208,318.607,228.208,328.813,228.208,328.813z"/>
</g>
<g>
	<line fill="none" stroke="#000000" stroke-width="4" stroke-miterlimit="10" x1="265.346" y1="192.708" x2="491.9" y2="419.264"/>
	<line fill="none" stroke="#000000" stroke-width="4" stroke-miterlimit="10" x1="491.9" y1="192.708" x2="265.346" y2="419.264"/>
</g>
<g>
	<g>
		<path d="M425.973,377.812c-2.979-1.175-5.876-2.454-8.702-3.96c0.21,0.798,0.419,1.596,0.628,2.394
			c1.263-2.588,1.599-5.226-1.388-6.558c-1.093-0.488-2.748,0.053-2.633,1.511c-0.204,0.61-0.407,1.222-0.611,1.832
			c0.707-0.092,1.414-0.183,2.12-0.273c-2.226-1.402-7.002-3.105-7.009-5.862c-0.006-2.285,0.787-4.782,1.646-6.893
			c0.613-1.505-1.357-2.659-2.57-1.976c-2.889,1.627-5.022,4.05-6.277,7.099c1.146,0.154,2.292,0.31,3.438,0.465
			c-0.346-3.067-0.568-6.145-0.681-9.229c-0.045-1.246-1.48-2.285-2.633-1.511c-2.926,1.964-3.645,5.555-4.274,8.82
			c-0.222,1.15-0.368,2.317-0.53,3.478c-0.071,0.509-1.686,1.095-2.08,1.481c-1.842,1.807-2.99,3.869-4.047,6.216
			c-4.61,10.224-11.126,18.697-22.868,20.681c-7.225,1.22-15.165,0.45-22.366-0.696c-4.017-0.64-8.157-2.842-11.488-5.077
			c-3.002-2.014-4.071-5.683-2.478-9.013c1.276-2.667,5.089-2.581,7.505-2.386c1.74,0.141,2.387-2.48,0.883-3.261
			c-4.877-2.533-10.016-2.81-13.537,2.052c-5.025,6.939-2.897,13.281,2.613,19.159c1.523,1.624,4.309,3.202,4.587,5.664
			c0.204,1.793-1.217,4.229-1.788,5.871c-1.471,4.234-1.967,8.687-1.963,13.145c0.004,4.765,1.777,9.128,2.954,13.677
			c1.482,5.725,0.015,12.225,0.174,18.074c0.027,0.988,0.777,1.704,1.75,1.75c4.01,0.191,8.416,0.686,12.37-0.17
			c0.812-0.176,1.208-0.937,1.285-1.688c0.275-2.668-0.517-4.236-2.927-5.392c-1.242-0.595,0.161-8.399,0.275-9.084
			c0.455-2.726,1.647-4.859,3.492-6.84c5.315-5.706,14.227-7.789,21.624-8.932c5.287-0.815,13.134-1.761,18.02,1.055
			c2.998,1.727,0.413,10.195,0.393,12.985c-0.037,5.275,0.194,11.373,1.208,16.58c0.159,0.817,0.95,1.202,1.688,1.285
			c2.869,0.322,12.065,1.576,13.835-1.712c2.049-3.808-2.034-8.238-6.001-7.5c0.738,0.562,1.477,1.125,2.215,1.688
			c0.477-9.259,2.603-18.453,6.236-26.967c1.217-2.85,2.038-5.623,2.369-8.696c0.356-3.308-2.872-14.643,2.432-15.121
			c-0.562-0.429-1.125-0.856-1.688-1.285c0.955,3.324,2.781,5.812,5.646,7.743c1.173,0.791,2.557-0.279,2.633-1.511
			c0.03-0.494,0.062-0.989,0.092-1.483c-0.878,0.504-1.756,1.008-2.633,1.511c1.256,0.907,2.325,1.817,3.584,2.689
			c1.486,1.031,3.243-0.949,2.394-2.394c-0.318-0.729-0.638-1.459-0.956-2.188c-0.856,0.658-1.714,1.317-2.57,1.976
			c1.753,1.339,3.23,1.971,5.403,2.215c1.675,0.188,2.1-1.964,1.237-2.987c-4.942-5.87,1.479-4.984,4.572-7.612
			c2.183-1.855,3.24-4.207,3.689-7.022C435.064,380.618,429.612,379.196,425.973,377.812c-2.113-0.804-3.019,2.581-0.93,3.375
			c2.155,0.82,6.186,1.39,5.692,4.479c-0.869,5.444-4.835,4.419-8.359,6.484c-4.004,2.345-0.786,8.284,1.152,10.587
			c0.412-0.996,0.825-1.991,1.237-2.987c-1.409-0.22-2.621-0.799-3.638-1.736c-1.263-0.965-2.973,0.619-2.57,1.976
			c0.418,1.408,0.564,1.757,1.31,3.023c0.798-0.798,1.596-1.596,2.394-2.394c-1.192-0.828-2.393-1.83-3.584-2.689
			c-1.156-0.835-2.559,0.312-2.633,1.511c-0.03,0.494-0.062,0.989-0.092,1.483c0.878-0.504,1.756-1.008,2.633-1.511
			c-2.122-1.432-3.332-3.2-4.036-5.651c-0.2-0.698-0.916-1.354-1.688-1.285c-9.335,0.842-5.818,12.222-5.932,18.621
			c-0.101,5.683-4.041,11.269-5.463,16.737c-1.617,6.216-2.812,12.505-3.142,18.926c-0.062,1.216,1.158,1.884,2.215,1.688
			c1.103-0.205,2.779,2.169,1.562,2.315c-1.099,0.132-2.231,0.11-3.335,0.136c-2.311,0.054-4.689,0.145-6.991-0.114
			c0.562,0.429,1.125,0.856,1.688,1.285c-0.709-3.646-0.474-7.327-0.594-11.017c-0.106-3.255-0.518-6.143-0.081-9.407
			c0.473-3.528,1.215-8.065-1.828-10.714c-4.719-4.106-14.356-2.807-19.909-2.135c-8.522,1.031-17.49,3.61-24.032,9.405
			c-3.286,2.911-4.916,6.862-5.389,11.182c-0.331,3.02-0.641,6.083,0.068,9.065c0.496,2.085,3.086,1.445,2.805,4.177
			c0.428-0.562,0.856-1.125,1.285-1.688c-3.602,0.779-7.781,0.22-11.439,0.045c0.583,0.583,1.167,1.167,1.75,1.75
			c-0.207-7.634,0.992-14.854-1.213-22.298c-2.491-8.414-2.251-15.879,0.806-24.129c1.881-5.077,0.444-7.805-3.435-11.355
			c-3.96-3.626-7.383-8.2-4.772-13.694c2.231-4.695,6.033-5.363,10.308-3.144c0.294-1.087,0.589-2.174,0.883-3.261
			c-4.183-0.339-8.043,0.538-10.527,4.119c-2.516,3.628-1.106,9.228,1.703,12.164c5.693,5.95,14.911,7.385,22.688,8.043
			c12.004,1.015,22.977-0.179,32.166-8.661c4.912-4.533,7.009-10.748,9.947-16.541c1.364-2.689,4.817-2.999,5.221-5.899
			c0.397-2.858,0.545-8.428,3.194-10.207c-0.877-0.503-1.755-1.007-2.633-1.511c0.112,3.085,0.335,6.162,0.681,9.229
			c0.227,2.015,2.674,2.32,3.438,0.465c0.902-2.193,2.646-3.868,4.668-5.007c-0.856-0.658-1.714-1.317-2.57-1.976
			c-1.197,2.939-1.776,6.059-1.769,9.225c0.011,4.014,5.799,5.629,8.74,7.481c0.723,0.455,1.507,0.206,2.12-0.273
			c1.524-1.192,1.788-2.396,1.637-4.307c-0.878,0.504-1.756,1.008-2.633,1.511c0.044,0.59,0.088,1.18,0.132,1.771
			c-0.405,0.829-0.26,1.921,0.628,2.394c3.094,1.649,6.278,3.028,9.538,4.313C427.145,382.017,428.048,378.631,425.973,377.812z"/>
	</g>
</g>
<rect x="293.17" y="313.785" fill="none" width="170.906" height="171.279"/>
<circle fill="none" cx="378.623" cy="307.36" r="185.24"/>
<text transform="matrix(0.2121 -0.9772 0.9772 0.2121 192.4482 291.6108)"><tspan x="0" y="0" font-family="'Quicksand-Bold'" font-size="63">C</tspan><tspan x="45.305" y="0.076" font-family="'Quicksand-Bold'" font-size="63" rotate="12.835">A</tspan><tspan x="82.085" y="8.219" font-family="'Quicksand-Bold'" font-size="63" rotate="24.243">R</tspan><tspan x="115.499" y="22.342" font-family="'Quicksand-Bold'" font-size="63" rotate="36.734">N</tspan><tspan x="151.714" y="49.685" font-family="'Quicksand-Bold'" font-size="63" rotate="48.968">E</tspan><tspan x="175.043" y="74.772" font-family="'Quicksand-Bold'" font-size="63" rotate="61.697">G</tspan><tspan x="196.963" y="117.924" font-family="'Quicksand-Bold'" font-size="63" rotate="71.749">I</tspan><tspan x="202.973" y="133.646" font-family="'Quicksand-Bold'" font-size="63" rotate="79.622">E</tspan><tspan x="208.802" y="168.021" font-family="'Quicksand-Bold'" font-size="63" rotate="87.514"> </tspan><tspan x="211.294" y="184.128" font-family="'Quicksand-Bold'" font-size="63" rotate="97.818">M</tspan><tspan x="203.994" y="233.422" font-family="'Quicksand-Bold'" font-size="63" rotate="110.793">E</tspan><tspan x="191.896" y="265.756" font-family="'Quicksand-Bold'" font-size="63" rotate="121.103">L</tspan><tspan x="175.226" y="293.86" font-family="'Quicksand-Bold'" font-size="63" rotate="131.121">L</tspan><tspan x="154.946" y="319.158" font-family="'Quicksand-Bold'" font-size="63" rotate="143.85">O</tspan><tspan x="114.617" y="348.781" font-family="'Quicksand-Bold'" font-size="63" rotate="158.569">N</tspan></text>
<circle fill="none" cx="378.623" cy="300" r="208.197"/>
<text transform="matrix(0.1633 0.9866 -0.9866 0.1633 170.9502 320.4785)"><tspan x="0" y="0" font-family="'Quicksand-Regular'" font-size="38.8178">D</tspan><tspan x="30.1" y="-0.28" font-family="'Quicksand-Regular'" font-size="38.8178" rotate="-7.792">a</tspan><tspan x="55.465" y="-4.058" font-family="'Quicksand-Regular'" font-size="38.8178" rotate="-13.722">t</tspan><tspan x="72.187" y="-8.004" font-family="'Quicksand-Regular'" font-size="38.8178" rotate="-19.636">a</tspan><tspan x="96.732" y="-16.849" font-family="'Quicksand-Regular'" font-size="38.8178" rotate="-27.019">b</tspan><tspan x="121.3" y="-29.585" font-family="'Quicksand-Regular'" font-size="38.8178" rotate="-34.37">a</tspan><tspan x="142.46" y="-44.343" font-family="'Quicksand-Regular'" font-size="38.8178" rotate="-40.75">s</tspan><tspan x="158.272" y="-57.929" font-family="'Quicksand-Regular'" font-size="38.8178" rotate="-47.083">e</tspan><tspan x="175.084" y="-76.508" font-family="'Quicksand-Regular'" font-size="38.8178" rotate="-52.33"> </tspan><tspan x="183.331" y="-86.78" font-family="'Quicksand-Regular'" font-size="38.8178" rotate="-57.819">A</tspan><tspan x="197.713" y="-109.867" font-family="'Quicksand-Regular'" font-size="38.8178" rotate="-65.428">p</tspan><tspan x="209.131" y="-135.189" font-family="'Quicksand-Regular'" font-size="38.8178" rotate="-73.099">p</tspan><tspan x="216.579" y="-161.181" font-family="'Quicksand-Regular'" font-size="38.8178" rotate="-78.313">l</tspan><tspan x="218.717" y="-171.439" font-family="'Quicksand-Regular'" font-size="38.8178" rotate="-81.532">i</tspan><tspan x="220.716" y="-183.431" font-family="'Quicksand-Regular'" font-size="38.8178" rotate="-86.147">c</tspan><tspan x="222.279" y="-207.482" font-family="'Quicksand-Regular'" font-size="38.8178" rotate="-93.042">a</tspan><tspan x="220.615" y="-233.071" font-family="'Quicksand-Regular'" font-size="38.8178" rotate="-98.972">t</tspan><tspan x="217.915" y="-249.423" font-family="'Quicksand-Regular'" font-size="38.8178" rotate="-102.926">i</tspan><tspan x="215.385" y="-261.516" font-family="'Quicksand-Regular'" font-size="38.8178" rotate="-108.181">o</tspan><tspan x="207.065" y="-286.404" font-family="'Quicksand-Regular'" font-size="38.8178" rotate="-115.334">n</tspan><tspan x="195.958" y="-309.058" font-family="'Quicksand-Regular'" font-size="38.8178" rotate="-120.584"> </tspan><tspan x="189.502" y="-320.767" font-family="'Quicksand-Regular'" font-size="38.8178" rotate="-126.729">C</tspan><tspan x="169.974" y="-346.332" font-family="'Quicksand-Regular'" font-size="38.8178" rotate="-134.724">a</tspan><tspan x="151.736" y="-364.323" font-family="'Quicksand-Regular'" font-size="38.8178" rotate="-140.595">t</tspan><tspan x="138.551" y="-375.33" font-family="'Quicksand-Regular'" font-size="38.8178" rotate="-146.504">a</tspan><tspan x="117.163" y="-389.034" font-family="'Quicksand-Regular'" font-size="38.8178" rotate="-151.553">l</tspan><tspan x="107.581" y="-394.521" font-family="'Quicksand-Regular'" font-size="38.8178" rotate="-156.632">o</tspan><tspan x="83.34" y="-404.892" font-family="'Quicksand-Regular'" font-size="38.8178" rotate="-164.093">g</tspan></text>
<circle cx="584.667" cy="303.902" r="7.499"/>
<circle cx="174.396" cy="307.285" r="7.5"/>
<path fill="#1D1D1B" d="M375.898,167.98c-23.66,0-42.909,19.25-42.909,42.91c0,12.131,5.214,23.765,14.305,31.918l0.7,0.627v12.47
	c0,2.147,1.748,3.896,3.896,3.896h48.016c2.147,0,3.896-1.748,3.896-3.896v-12.47l0.7-0.627c9.09-8.151,14.304-19.784,14.304-31.918
	C418.806,187.229,399.558,167.98,375.898,167.98z M399.012,255.011h-10.214v-9.002h-1.791v9.002h-10.213v-9.002h-1.79v9.002h-10.215
	v-9.002H363v9.002h-10.214v-13.716l-2.293-2.055c-8.079-7.242-12.712-17.575-12.712-28.349c0-21.02,17.1-38.12,38.117-38.12
	c21.019,0,38.119,17.1,38.119,38.12c0,10.771-4.634,21.104-12.715,28.351l-2.29,2.053V255.011z M390.904,209.995
	c-3.803,0-6.897,3.094-6.897,6.898c0,3.802,3.094,6.896,6.897,6.896c3.801,0,6.894-3.093,6.894-6.896
	S394.705,209.995,390.904,209.995z M360.894,209.995c-3.804,0-6.898,3.094-6.898,6.898c0,3.802,3.094,6.896,6.898,6.896
	c3.802,0,6.895-3.093,6.895-6.896S364.696,209.995,360.894,209.995z"/>
</svg>
